<svg viewBox="0 0 100 100" 
xmlns="http://www.w3.org/2000/svg" 
style="width:100; height:100;">
    <!--Background-->
    <circle r="48" cx="50" cy="50" 
    style="fill: #94bdc5; stroke: #6f98a0; 
    stroke-width: 2;"></circle>
    <!--Cube top-->
    <path d="M 50.5 12.5 L 17.5 31.5 
    L 50.5 50.5 L 82.5 31.5 L 50.5 12.5" 
    style="fill: #6b423a; stroke: #6b423a; 
    stroke-width: 0.49;"></path>
    <!--Cube left-->
    <path d="M 17.5 31.5 L 17.5 68.5 
    L 50.5 87.5 L 50.5 50.5 L 17.5 31.5" 
    style="fill: #603b34; stroke: #603b34; 
    stroke-width: 0.49;"></path>
    <!--Cube right-->
    <path d="M 82.5 31.5 L 82.5 68.5 
    L 50.5 87.5 L 50.5 50.5 L 82.5 31.5"  
    style="fill: #583630; stroke: #583630; 
    stroke-width: 0.49;"></path>
    <!--Note-->
    <path d="M 44 25 L 51 25 
    L 51 11 L 54 11 L 54 13 
    L 56 13 L 56 10 L 53 10 
    L 53 7 L 49 7 L 49 20 
    L 44 20" 
    style="fill: #6dff3a;"></path>
    <!--B Blue-->
    <path d="M 20 68 L 44.5 81.5 
    L 44.5 79 L 46.5 80 L 46.5 72 
    L 42.5 70 L 42.5 64 L 46.5 66 
    L 46.5 55 L 44.5 54 L 44.5 51.5 
    L 20 38" 
    style="fill: #94bdc5;"></path>
    <!--B Hole-->
    <path d="M 26 64.5 L 40.5 73 
    L 40.5 69 L 26 61 M 26 54 
    L 40.5 62 L 40.5 56 L 26 48" 
    style="fill: #603b34;"></path>
    <!--G Blue-->
    <path d="M 54 80.5 L 56 79.5 
    L 56 81.5 L 80 67.5 L 80 50.5 
    L 65.5 59 L 65.5 65.5 L 74.5 61 
    L 74.5 64.5 L 60 72.5 L 60 56 
    L 74.5 47.5 L 74.5 50 L 80 47 
    L 80 37.5 L 56 51.5 L 56 54 
    L 54 55" 
    style="fill: #94bdc5;"></path>
</svg>